<svg width="479" height="42" viewBox="0 0 479 42" fill="none" xmlns="http://www.w3.org/2000/svg">
<path d="M0.24 33L12.48 5H21.76L34 33H24.24L15.2 9.48H18.88L9.84 33H0.24ZM7.52 28.12L9.92 21.32H22.8L25.2 28.12H7.52ZM60.7913 33.4C58.9246 33.4 57.0846 33.2 55.2713 32.8C53.4579 32.4 51.9913 31.88 50.8713 31.24L53.3513 25.28C54.3913 25.8933 55.5913 26.3733 56.9513 26.72C58.3379 27.0667 59.6846 27.24 60.9913 27.24C62.0846 27.24 62.8179 27.1467 63.1913 26.96C63.5913 26.7733 63.7913 26.52 63.7913 26.2C63.7913 25.88 63.5646 25.6533 63.1113 25.52C62.6579 25.36 62.0579 25.24 61.3113 25.16C60.5646 25.08 59.7379 24.9867 58.8313 24.88C57.9513 24.7467 57.0579 24.56 56.1513 24.32C55.2446 24.08 54.4179 23.72 53.6713 23.24C52.9246 22.76 52.3246 22.12 51.8713 21.32C51.4179 20.4933 51.1913 19.4533 51.1913 18.2C51.1913 16.8133 51.6046 15.56 52.4313 14.44C53.2846 13.32 54.5379 12.4267 56.1913 11.76C57.8713 11.0667 59.9379 10.72 62.3913 10.72C63.9913 10.72 65.5913 10.8667 67.1913 11.16C68.7913 11.4533 70.1646 11.9067 71.3113 12.52L68.8313 18.48C67.7113 17.8667 66.6046 17.4533 65.5113 17.24C64.4446 17 63.4446 16.88 62.5113 16.88C61.3646 16.88 60.5779 16.9867 60.1513 17.2C59.7513 17.4133 59.5513 17.6533 59.5513 17.92C59.5513 18.24 59.7779 18.48 60.2313 18.64C60.6846 18.8 61.2846 18.92 62.0313 19C62.7779 19.08 63.5913 19.1867 64.4713 19.32C65.3779 19.4267 66.2713 19.6133 67.1513 19.88C68.0579 20.12 68.8846 20.48 69.6313 20.96C70.3779 21.44 70.9779 22.0933 71.4313 22.92C71.8846 23.72 72.1113 24.7467 72.1113 26C72.1113 27.3067 71.6979 28.5333 70.8713 29.68C70.0446 30.8 68.7913 31.7067 67.1113 32.4C65.4313 33.0667 63.3246 33.4 60.7913 33.4ZM100.608 33.4C98.7418 33.4 96.9018 33.2 95.0884 32.8C93.2751 32.4 91.8084 31.88 90.6884 31.24L93.1684 25.28C94.2084 25.8933 95.4084 26.3733 96.7684 26.72C98.1551 27.0667 99.5018 27.24 100.808 27.24C101.902 27.24 102.635 27.1467 103.008 26.96C103.408 26.7733 103.608 26.52 103.608 26.2C103.608 25.88 103.382 25.6533 102.928 25.52C102.475 25.36 101.875 25.24 101.128 25.16C100.382 25.08 99.5551 24.9867 98.6484 24.88C97.7684 24.7467 96.8751 24.56 95.9684 24.32C95.0618 24.08 94.2351 23.72 93.4884 23.24C92.7418 22.76 92.1418 22.12 91.6884 21.32C91.2351 20.4933 91.0084 19.4533 91.0084 18.2C91.0084 16.8133 91.4218 15.56 92.2484 14.44C93.1018 13.32 94.3551 12.4267 96.0084 11.76C97.6884 11.0667 99.7551 10.72 102.208 10.72C103.808 10.72 105.408 10.8667 107.008 11.16C108.608 11.4533 109.982 11.9067 111.128 12.52L108.648 18.48C107.528 17.8667 106.422 17.4533 105.328 17.24C104.262 17 103.262 16.88 102.328 16.88C101.182 16.88 100.395 16.9867 99.9684 17.2C99.5684 17.4133 99.3684 17.6533 99.3684 17.92C99.3684 18.24 99.5951 18.48 100.048 18.64C100.502 18.8 101.102 18.92 101.848 19C102.595 19.08 103.408 19.1867 104.288 19.32C105.195 19.4267 106.088 19.6133 106.968 19.88C107.875 20.12 108.702 20.48 109.448 20.96C110.195 21.44 110.795 22.0933 111.248 22.92C111.702 23.72 111.928 24.7467 111.928 26C111.928 27.3067 111.515 28.5333 110.688 29.68C109.862 30.8 108.608 31.7067 106.928 32.4C105.248 33.0667 103.142 33.4 100.608 33.4ZM131.866 33V11.12H140.906V33H131.866ZM136.386 9.36C134.732 9.36 133.412 8.92 132.426 8.04C131.439 7.16 130.946 6.06667 130.946 4.76C130.946 3.45333 131.439 2.36 132.426 1.48C133.412 0.599998 134.732 0.159998 136.386 0.159998C138.039 0.159998 139.359 0.573332 140.346 1.4C141.332 2.22666 141.826 3.29333 141.826 4.6C141.826 5.98666 141.332 7.13333 140.346 8.04C139.359 8.92 138.039 9.36 136.386 9.36ZM173.233 41.16C171.073 41.16 169.046 40.9333 167.153 40.48C165.259 40.0267 163.633 39.3467 162.273 38.44L165.313 32.28C166.166 32.9467 167.246 33.4667 168.553 33.84C169.886 34.24 171.139 34.44 172.313 34.44C174.179 34.44 175.513 34.04 176.313 33.24C177.113 32.4667 177.513 31.3467 177.513 29.88V28.04L177.913 21.24L177.953 14.44V11.12H186.553V28.64C186.553 32.88 185.379 36.0267 183.033 38.08C180.686 40.1333 177.419 41.16 173.233 41.16ZM171.473 31.8C169.633 31.8 167.913 31.3733 166.313 30.52C164.713 29.64 163.419 28.4133 162.433 26.84C161.446 25.2667 160.953 23.4 160.953 21.24C160.953 19.08 161.446 17.2133 162.433 15.64C163.419 14.0667 164.713 12.8533 166.313 12C167.913 11.1467 169.633 10.72 171.473 10.72C173.366 10.72 174.913 11.0933 176.113 11.84C177.339 12.5867 178.246 13.7467 178.833 15.32C179.419 16.8667 179.713 18.84 179.713 21.24C179.713 23.64 179.419 25.6267 178.833 27.2C178.246 28.7467 177.339 29.9067 176.113 30.68C174.913 31.4267 173.366 31.8 171.473 31.8ZM173.873 24.76C174.593 24.76 175.233 24.6133 175.793 24.32C176.353 24.0267 176.793 23.6133 177.113 23.08C177.433 22.5467 177.593 21.9333 177.593 21.24C177.593 20.52 177.433 19.9067 177.113 19.4C176.793 18.8667 176.353 18.4667 175.793 18.2C175.233 17.9067 174.593 17.76 173.873 17.76C173.179 17.76 172.539 17.9067 171.953 18.2C171.393 18.4667 170.939 18.8667 170.593 19.4C170.273 19.9067 170.113 20.52 170.113 21.24C170.113 21.9333 170.273 22.5467 170.593 23.08C170.939 23.6133 171.393 24.0267 171.953 24.32C172.539 24.6133 173.179 24.76 173.873 24.76ZM222.95 10.72C224.63 10.72 226.15 11.0667 227.51 11.76C228.87 12.4267 229.937 13.48 230.71 14.92C231.51 16.36 231.91 18.2267 231.91 20.52V33H222.87V22.08C222.87 20.72 222.63 19.76 222.15 19.2C221.67 18.6133 221.017 18.32 220.19 18.32C219.577 18.32 219.003 18.4667 218.47 18.76C217.963 19.0267 217.55 19.48 217.23 20.12C216.937 20.76 216.79 21.6267 216.79 22.72V33H207.75V11.12H216.35V17.52L214.63 15.68C215.483 14.0267 216.63 12.7867 218.07 11.96C219.537 11.1333 221.163 10.72 222.95 10.72ZM281.996 10.72C283.649 10.72 285.129 11.0667 286.436 11.76C287.769 12.4267 288.809 13.48 289.556 14.92C290.329 16.36 290.716 18.2267 290.716 20.52V33H281.676V22.08C281.676 20.72 281.449 19.76 280.996 19.2C280.543 18.6133 279.956 18.32 279.236 18.32C278.703 18.32 278.223 18.4533 277.796 18.72C277.369 18.9867 277.023 19.4133 276.756 20C276.516 20.56 276.396 21.3333 276.396 22.32V33H267.356V22.08C267.356 20.72 267.143 19.76 266.716 19.2C266.289 18.6133 265.689 18.32 264.916 18.32C264.383 18.32 263.903 18.4533 263.476 18.72C263.049 18.9867 262.703 19.4133 262.436 20C262.196 20.56 262.076 21.3333 262.076 22.32V33H253.036V11.12H261.636V17.4L259.876 15.64C260.703 13.9867 261.809 12.76 263.196 11.96C264.583 11.1333 266.129 10.72 267.836 10.72C269.756 10.72 271.449 11.2267 272.916 12.24C274.409 13.2267 275.409 14.8 275.916 16.96L273.156 16.52C273.956 14.7067 275.116 13.2933 276.636 12.28C278.183 11.24 279.969 10.72 281.996 10.72ZM324.308 33.4C321.641 33.4 319.308 32.9067 317.308 31.92C315.335 30.9333 313.801 29.5867 312.708 27.88C311.615 26.1467 311.068 24.2 311.068 22.04C311.068 19.8267 311.601 17.8667 312.668 16.16C313.761 14.4533 315.241 13.12 317.108 12.16C319.001 11.2 321.121 10.72 323.468 10.72C325.628 10.72 327.615 11.1467 329.428 12C331.268 12.8533 332.735 14.12 333.828 15.8C334.948 17.48 335.508 19.56 335.508 22.04C335.508 22.36 335.495 22.72 335.468 23.12C335.441 23.4933 335.415 23.84 335.388 24.16H318.548V19.8H330.588L327.188 20.96C327.188 20.1067 327.028 19.3867 326.708 18.8C326.415 18.1867 326.001 17.72 325.468 17.4C324.935 17.0533 324.295 16.88 323.548 16.88C322.801 16.88 322.148 17.0533 321.588 17.4C321.055 17.72 320.641 18.1867 320.348 18.8C320.055 19.3867 319.908 20.1067 319.908 20.96V22.32C319.908 23.2533 320.095 24.0533 320.468 24.72C320.841 25.3867 321.375 25.8933 322.068 26.24C322.761 26.56 323.601 26.72 324.588 26.72C325.601 26.72 326.428 26.5867 327.068 26.32C327.735 26.0533 328.428 25.6533 329.148 25.12L333.868 29.88C332.801 31.0267 331.481 31.9067 329.908 32.52C328.361 33.1067 326.495 33.4 324.308 33.4ZM370.761 10.72C372.441 10.72 373.961 11.0667 375.321 11.76C376.681 12.4267 377.748 13.48 378.521 14.92C379.321 16.36 379.721 18.2267 379.721 20.52V33H370.681V22.08C370.681 20.72 370.441 19.76 369.961 19.2C369.481 18.6133 368.828 18.32 368.001 18.32C367.388 18.32 366.814 18.4667 366.281 18.76C365.774 19.0267 365.361 19.48 365.041 20.12C364.748 20.76 364.601 21.6267 364.601 22.72V33H355.561V11.12H364.161V17.52L362.441 15.68C363.294 14.0267 364.441 12.7867 365.881 11.96C367.348 11.1333 368.974 10.72 370.761 10.72ZM411.407 33.4C408.394 33.4 406.047 32.68 404.367 31.24C402.687 29.7733 401.847 27.5333 401.847 24.52V6.2H410.887V24.44C410.887 25.1067 411.06 25.6267 411.407 26C411.78 26.3733 412.234 26.56 412.767 26.56C413.54 26.56 414.22 26.36 414.807 25.96L416.967 32.24C416.274 32.64 415.434 32.9333 414.447 33.12C413.487 33.3067 412.474 33.4 411.407 33.4ZM398.847 18.92V12.32H415.367V18.92H398.847ZM468.638 33V8.28L472.678 12.12H463.838V5H478.078V33H468.638Z" fill="white"/>
<path d="M0.24 33L-1.59256 32.1989L-2.81703 35H0.24V33ZM12.48 5V3H11.1715L10.6474 4.19891L12.48 5ZM21.76 5L23.5926 4.19891L23.0685 3H21.76V5ZM34 33V35H37.057L35.8326 32.1989L34 33ZM24.24 33L22.3731 33.7175L22.8661 35H24.24V33ZM15.2 9.48V7.48H12.2887L13.3331 10.1975L15.2 9.48ZM18.88 9.48L20.7469 10.1975L21.7913 7.48H18.88V9.48ZM9.84 33V35H11.2139L11.7069 33.7175L9.84 33ZM7.52 28.12L5.63402 27.4544L4.69321 30.12H7.52V28.12ZM9.92 21.32V19.32H8.50497L8.03402 20.6544L9.92 21.32ZM22.8 21.32L24.686 20.6544L24.215 19.32H22.8V21.32ZM25.2 28.12V30.12H28.0268L27.086 27.4544L25.2 28.12ZM2.07255 33.8011L14.3126 5.80109L10.6474 4.19891L-1.59256 32.1989L2.07255 33.8011ZM12.48 7H21.76V3H12.48V7ZM19.9274 5.80109L32.1674 33.8011L35.8326 32.1989L23.5926 4.19891L19.9274 5.80109ZM34 31H24.24V35H34V31ZM26.1069 32.2825L17.0669 8.76247L13.3331 10.1975L22.3731 33.7175L26.1069 32.2825ZM15.2 11.48H18.88V7.48H15.2V11.48ZM17.0131 8.76247L7.97315 32.2825L11.7069 33.7175L20.7469 10.1975L17.0131 8.76247ZM9.84 31H0.24V35H9.84V31ZM9.40598 28.7856L11.806 21.9856L8.03402 20.6544L5.63402 27.4544L9.40598 28.7856ZM9.92 23.32H22.8V19.32H9.92V23.32ZM20.914 21.9856L23.314 28.7856L27.086 27.4544L24.686 20.6544L20.914 21.9856ZM25.2 26.12H7.52V30.12H25.2V26.12ZM55.2713 32.8L54.8404 34.753L55.2713 32.8ZM50.8713 31.24L49.0247 30.4716L48.3468 32.1009L49.879 32.9765L50.8713 31.24ZM53.3512 25.28L54.3672 23.5573L52.3876 22.3898L51.5047 24.5116L53.3512 25.28ZM56.9513 26.72L56.4572 28.6581L56.4662 28.6603L56.9513 26.72ZM63.1912 26.96L62.3455 25.1476L62.321 25.1591L62.2968 25.1711L63.1912 26.96ZM63.1113 25.52L62.4456 27.406L62.4958 27.4237L62.5469 27.4387L63.1113 25.52ZM58.8312 24.88L58.5316 26.8574L58.5645 26.8624L58.5976 26.8663L58.8312 24.88ZM56.1513 24.32L55.6395 26.2534L56.1513 24.32ZM53.6712 23.24L52.5897 24.9224L53.6712 23.24ZM51.8713 21.32L50.1176 22.2817L50.1243 22.2939L50.1312 22.306L51.8713 21.32ZM52.4313 14.44L50.8404 13.2279L50.8312 13.24L50.8221 13.2523L52.4313 14.44ZM56.1912 11.76L56.9392 13.6149L56.9467 13.6118L56.9542 13.6087L56.1912 11.76ZM67.1913 11.16L66.8306 13.1272L67.1913 11.16ZM71.3112 12.52L73.1578 13.2883L73.8551 11.6125L72.2546 10.7564L71.3112 12.52ZM68.8313 18.48L67.8706 20.2342L69.8227 21.3032L70.6778 19.2484L68.8313 18.48ZM65.5113 17.24L65.0722 19.1912L65.1001 19.1975L65.1282 19.203L65.5113 17.24ZM60.1513 17.2L59.2568 15.4111L59.2333 15.4229L59.2101 15.4353L60.1513 17.2ZM60.2313 18.64L60.8969 16.754L60.8969 16.754L60.2313 18.64ZM62.0312 19L62.2443 17.0114H62.2443L62.0312 19ZM64.4713 19.32L64.1716 21.2974L64.2045 21.3024L64.2376 21.3063L64.4713 19.32ZM67.1513 19.88L66.5712 21.794L66.6052 21.8043L66.6395 21.8134L67.1513 19.88ZM69.6312 20.96L70.7128 19.2776L69.6312 20.96ZM71.4313 22.92L69.6776 23.8817L69.6843 23.8939L69.6912 23.906L71.4313 22.92ZM70.8713 29.68L72.4804 30.8677L72.4871 30.8587L72.4936 30.8496L70.8713 29.68ZM67.1113 32.4L67.8489 34.259L67.8616 34.254L67.8742 34.2487L67.1113 32.4ZM60.7913 31.4C59.0687 31.4 57.3732 31.2156 55.7021 30.847L54.8404 34.753C56.796 35.1844 58.7805 35.4 60.7913 35.4V31.4ZM55.7021 30.847C54.007 30.473 52.75 30.01 51.8635 29.5035L49.879 32.9765C51.2325 33.75 52.9088 34.327 54.8404 34.753L55.7021 30.847ZM52.7178 32.0084L55.1978 26.0484L51.5047 24.5116L49.0247 30.4716L52.7178 32.0084ZM52.3353 27.0027C53.5621 27.7263 54.943 28.272 56.4572 28.658L57.4453 24.782C56.2396 24.4746 55.2204 24.0604 54.3672 23.5573L52.3353 27.0027ZM56.4662 28.6603C57.9968 29.0429 59.5066 29.24 60.9913 29.24V25.24C59.8626 25.24 58.6791 25.0904 57.4363 24.7797L56.4662 28.6603ZM60.9913 29.24C61.5865 29.24 62.134 29.2151 62.6138 29.154C63.0593 29.0973 63.599 28.9922 64.0857 28.7489L62.2968 25.1711C62.4101 25.1145 62.3965 25.1494 62.1087 25.186C61.8551 25.2183 61.4894 25.24 60.9913 25.24V29.24ZM64.037 28.7724C64.8287 28.4029 65.7913 27.5911 65.7913 26.2H61.7913C61.7913 25.9061 61.8954 25.6137 62.0715 25.3907C62.2225 25.1995 62.3613 25.1403 62.3455 25.1476L64.037 28.7724ZM65.7913 26.2C65.7913 25.5085 65.5231 24.8635 65.0355 24.3758C64.5996 23.9399 64.0821 23.7208 63.6756 23.6013L62.5469 27.4387C62.5937 27.4525 62.4162 27.4134 62.207 27.2042C62.0937 27.0909 61.9815 26.9371 61.9013 26.7435C61.821 26.5498 61.7913 26.3613 61.7913 26.2H65.7913ZM63.7769 23.634C63.1195 23.402 62.3494 23.2598 61.5243 23.1714L61.0982 27.1486C61.7664 27.2202 62.1964 27.318 62.4456 27.406L63.7769 23.634ZM61.5243 23.1714C60.7858 23.0923 59.9661 22.9997 59.0649 22.8937L58.5976 26.8663C59.5097 26.9736 60.3434 27.0677 61.0982 27.1486L61.5243 23.1714ZM59.1309 22.9026C58.326 22.7806 57.5035 22.6091 56.663 22.3866L55.6395 26.2534C56.6123 26.5109 57.5765 26.7127 58.5316 26.8574L59.1309 22.9026ZM56.663 22.3866C55.9467 22.197 55.3141 21.9185 54.7528 21.5576L52.5897 24.9224C53.5218 25.5215 54.5424 25.963 55.6395 26.2534L56.663 22.3866ZM54.7528 21.5576C54.2888 21.2594 53.9107 20.8624 53.6113 20.334L50.1312 22.306C50.7384 23.3776 51.5604 24.2606 52.5897 24.9224L54.7528 21.5576ZM53.6249 20.3583C53.3777 19.9076 53.1912 19.2239 53.1912 18.2H49.1912C49.1912 19.6828 49.4581 21.079 50.1176 22.2817L53.6249 20.3583ZM53.1912 18.2C53.1912 17.2426 53.4665 16.4052 54.0404 15.6277L50.8221 13.2523C49.7426 14.7148 49.1912 16.384 49.1912 18.2H53.1912ZM54.0221 15.6521C54.6065 14.8851 55.5319 14.1823 56.9392 13.6149L55.4433 9.90512C53.5439 10.671 51.9627 11.7549 50.8404 13.2279L54.0221 15.6521ZM56.9542 13.6087C58.3236 13.0436 60.1135 12.72 62.3913 12.72V8.72C59.7623 8.72 57.4189 9.08973 55.4283 9.91125L56.9542 13.6087ZM62.3913 12.72C63.8683 12.72 65.3476 12.8553 66.8306 13.1272L67.5519 9.19279C65.8349 8.878 64.1142 8.72 62.3913 8.72V12.72ZM66.8306 13.1272C68.2758 13.3922 69.4429 13.7888 70.3679 14.2836L72.2546 10.7564C70.8863 10.0246 69.3067 9.5145 67.5519 9.19279L66.8306 13.1272ZM69.4647 11.7516L66.9847 17.7116L70.6778 19.2484L73.1578 13.2883L69.4647 11.7516ZM69.7919 16.7258C68.5172 16.0278 67.2168 15.5351 65.8943 15.277L65.1282 19.203C65.9923 19.3716 66.9053 19.7056 67.8706 20.2342L69.7919 16.7258ZM65.9503 15.2888C64.7634 15.0217 63.6149 14.88 62.5112 14.88V18.88C63.2743 18.88 64.1258 18.9783 65.0722 19.1912L65.9503 15.2888ZM62.5112 14.88C61.8838 14.88 61.3045 14.9087 60.7925 14.9781C60.3059 15.0441 59.7542 15.1625 59.2568 15.4111L61.0457 18.9889C60.975 19.0242 61.0299 18.9826 61.33 18.9419C61.6047 18.9046 61.992 18.88 62.5112 18.88V14.88ZM59.2101 15.4353C58.6345 15.7423 57.5513 16.4983 57.5513 17.92H61.5513C61.5513 18.3324 61.3833 18.6457 61.2377 18.8204C61.1156 18.9669 61.0261 19.0001 61.0924 18.9647L59.2101 15.4353ZM57.5513 17.92C57.5513 18.6083 57.8155 19.235 58.2672 19.7132C58.6756 20.1456 59.166 20.385 59.5656 20.526L60.8969 16.754C60.8431 16.735 60.9936 16.7744 61.1753 16.9668C61.2736 17.0708 61.3743 17.2134 61.4476 17.3946C61.5215 17.577 61.5513 17.7583 61.5513 17.92H57.5513ZM59.5656 20.526C60.223 20.758 60.9931 20.9002 61.8182 20.9886L62.2443 17.0114C61.5761 16.9398 61.1461 16.842 60.8969 16.754L59.5656 20.526ZM61.8182 20.9886C62.5312 21.065 63.3153 21.1677 64.1716 21.2974L64.7709 17.3426C63.8672 17.2056 63.0246 17.095 62.2443 17.0114L61.8182 20.9886ZM64.2376 21.3063C65.026 21.3991 65.8035 21.5614 66.5712 21.794L67.7313 17.966C66.739 17.6653 65.7298 17.4543 64.7049 17.3337L64.2376 21.3063ZM66.6395 21.8134C67.3558 22.003 67.9884 22.2815 68.5497 22.6424L70.7128 19.2776C69.7807 18.6785 68.7601 18.237 67.663 17.9466L66.6395 21.8134ZM68.5497 22.6424C68.9983 22.9307 69.3744 23.3288 69.6776 23.8817L73.1849 21.9583C72.5814 20.8579 71.7575 19.9493 70.7128 19.2776L68.5497 22.6424ZM69.6912 23.906C69.9233 24.3157 70.1113 24.9721 70.1113 26H74.1113C74.1113 24.5212 73.8458 23.1243 73.1713 21.934L69.6912 23.906ZM70.1113 26C70.1113 26.852 69.8512 27.6749 69.2489 28.5104L72.4936 30.8496C73.5446 29.3918 74.1113 27.7614 74.1113 26H70.1113ZM69.2621 28.4923C68.7086 29.2422 67.7919 29.9555 66.3483 30.5513L67.8742 34.2487C69.7906 33.4579 71.3805 32.3578 72.4804 30.8677L69.2621 28.4923ZM66.3736 30.541C65.0022 31.0852 63.166 31.4 60.7913 31.4V35.4C63.4832 35.4 65.8603 35.0481 67.8489 34.259L66.3736 30.541ZM95.0884 32.8L94.6576 34.753L95.0884 32.8ZM90.6884 31.24L88.8419 30.4716L88.164 32.1009L89.6962 32.9765L90.6884 31.24ZM93.1684 25.28L94.1844 23.5573L92.2048 22.3898L91.3219 24.5116L93.1684 25.28ZM96.7684 26.72L96.2744 28.6581L96.2834 28.6603L96.7684 26.72ZM103.008 26.96L102.163 25.1476L102.138 25.1591L102.114 25.1711L103.008 26.96ZM102.928 25.52L102.263 27.406L102.313 27.4237L102.364 27.4387L102.928 25.52ZM98.6484 24.88L98.3488 26.8574L98.3817 26.8624L98.4148 26.8663L98.6484 24.88ZM95.9684 24.32L95.4567 26.2534L95.9684 24.32ZM93.4884 23.24L92.4069 24.9224L93.4884 23.24ZM91.6884 21.32L89.9348 22.2817L89.9415 22.2939L89.9484 22.306L91.6884 21.32ZM92.2484 14.44L90.6576 13.2279L90.6483 13.24L90.6393 13.2523L92.2484 14.44ZM96.0084 11.76L96.7564 13.6149L96.7639 13.6118L96.7714 13.6087L96.0084 11.76ZM107.008 11.16L106.648 13.1272L107.008 11.16ZM111.128 12.52L112.975 13.2883L113.672 11.6125L112.072 10.7564L111.128 12.52ZM108.648 18.48L107.688 20.2342L109.64 21.3032L110.495 19.2484L108.648 18.48ZM105.328 17.24L104.889 19.1912L104.917 19.1975L104.945 19.203L105.328 17.24ZM99.9684 17.2L99.074 15.4111L99.0505 15.4229L99.0273 15.4353L99.9684 17.2ZM100.048 18.64L100.714 16.754V16.754L100.048 18.64ZM101.848 19L102.062 17.0114L101.848 19ZM104.288 19.32L103.989 21.2974L104.022 21.3024L104.055 21.3063L104.288 19.32ZM106.968 19.88L106.388 21.794L106.422 21.8043L106.457 21.8134L106.968 19.88ZM109.448 20.96L110.53 19.2776L109.448 20.96ZM111.248 22.92L109.495 23.8817L109.502 23.8939L109.508 23.906L111.248 22.92ZM110.688 29.68L112.298 30.8677L112.304 30.8587L112.311 30.8496L110.688 29.68ZM106.928 32.4L107.666 34.259L107.679 34.254L107.691 34.2487L106.928 32.4ZM100.608 31.4C98.8859 31.4 97.1904 31.2156 95.5193 30.847L94.6576 34.753C96.6132 35.1844 98.5977 35.4 100.608 35.4V31.4ZM95.5193 30.847C93.8242 30.473 92.5672 30.01 91.6807 29.5035L89.6962 32.9765C91.0497 33.75 92.726 34.327 94.6576 34.753L95.5193 30.847ZM92.535 32.0084L95.015 26.0484L91.3219 24.5116L88.8419 30.4716L92.535 32.0084ZM92.1525 27.0027C93.3793 27.7263 94.7601 28.272 96.2744 28.658L97.2624 24.782C96.0567 24.4746 95.0376 24.0604 94.1844 23.5573L92.1525 27.0027ZM96.2834 28.6603C97.814 29.0429 99.3238 29.24 100.808 29.24V25.24C99.6798 25.24 98.4962 25.0904 97.2535 24.7797L96.2834 28.6603ZM100.808 29.24C101.404 29.24 101.951 29.2151 102.431 29.154C102.877 29.0973 103.416 28.9922 103.903 28.7489L102.114 25.1711C102.227 25.1145 102.214 25.1494 101.926 25.186C101.672 25.2183 101.307 25.24 100.808 25.24V29.24ZM103.854 28.7724C104.646 28.4029 105.608 27.5911 105.608 26.2H101.608C101.608 25.9061 101.713 25.6137 101.889 25.3907C102.04 25.1995 102.178 25.1403 102.163 25.1476L103.854 28.7724ZM105.608 26.2C105.608 25.5085 105.34 24.8635 104.853 24.3758C104.417 23.9399 103.899 23.7208 103.493 23.6013L102.364 27.4387C102.411 27.4525 102.233 27.4134 102.024 27.2042C101.911 27.0909 101.799 26.9371 101.718 26.7435C101.638 26.5498 101.608 26.3613 101.608 26.2H105.608ZM103.594 23.634C102.937 23.402 102.167 23.2598 101.342 23.1714L100.915 27.1486C101.584 27.2202 102.014 27.318 102.263 27.406L103.594 23.634ZM101.342 23.1714C100.603 23.0923 99.7833 22.9997 98.8821 22.8937L98.4148 26.8663C99.3269 26.9736 100.161 27.0677 100.915 27.1486L101.342 23.1714ZM98.9481 22.9026C98.1432 22.7806 97.3207 22.6091 96.4802 22.3866L95.4567 26.2534C96.4295 26.5109 97.3937 26.7127 98.3488 26.8574L98.9481 22.9026ZM96.4802 22.3866C95.7639 22.197 95.1313 21.9185 94.57 21.5576L92.4069 24.9224C93.3389 25.5215 94.3596 25.963 95.4567 26.2534L96.4802 22.3866ZM94.57 21.5576C94.106 21.2594 93.7279 20.8624 93.4285 20.334L89.9484 22.306C90.5556 23.3776 91.3776 24.2606 92.4069 24.9224L94.57 21.5576ZM93.4421 20.3583C93.1949 19.9076 93.0084 19.2239 93.0084 18.2H89.0084C89.0084 19.6828 89.2753 21.079 89.9348 22.2817L93.4421 20.3583ZM93.0084 18.2C93.0084 17.2426 93.2837 16.4052 93.8576 15.6277L90.6393 13.2523C89.5598 14.7148 89.0084 16.384 89.0084 18.2H93.0084ZM93.8393 15.6521C94.4237 14.8851 95.3491 14.1823 96.7564 13.6149L95.2605 9.90512C93.3611 10.671 91.7798 11.7549 90.6576 13.2279L93.8393 15.6521ZM96.7714 13.6087C98.1408 13.0436 99.9307 12.72 102.208 12.72V8.72C99.5795 8.72 97.2361 9.08973 95.2455 9.91125L96.7714 13.6087ZM102.208 12.72C103.685 12.72 105.165 12.8553 106.648 13.1272L107.369 9.19279C105.652 8.878 103.931 8.72 102.208 8.72V12.72ZM106.648 13.1272C108.093 13.3922 109.26 13.7888 110.185 14.2836L112.072 10.7564C110.703 10.0246 109.124 9.5145 107.369 9.19279L106.648 13.1272ZM109.282 11.7516L106.802 17.7116L110.495 19.2484L112.975 13.2883L109.282 11.7516ZM109.609 16.7258C108.334 16.0278 107.034 15.5351 105.711 15.277L104.945 19.203C105.81 19.3716 106.723 19.7056 107.688 20.2342L109.609 16.7258ZM105.767 15.2888C104.581 15.0217 103.432 14.88 102.328 14.88V18.88C103.091 18.88 103.943 18.9783 104.889 19.1912L105.767 15.2888ZM102.328 14.88C101.701 14.88 101.122 14.9087 100.61 14.9781C100.123 15.0441 99.5714 15.1625 99.074 15.4111L100.863 18.9889C100.792 19.0242 100.847 18.9826 101.147 18.9419C101.422 18.9046 101.809 18.88 102.328 18.88V14.88ZM99.0273 15.4353C98.4517 15.7423 97.3684 16.4983 97.3684 17.92H101.368C101.368 18.3324 101.2 18.6457 101.055 18.8204C100.933 18.9669 100.843 19.0001 100.91 18.9647L99.0273 15.4353ZM97.3684 17.92C97.3684 18.6083 97.6327 19.235 98.0844 19.7132C98.4928 20.1456 98.9832 20.385 99.3828 20.526L100.714 16.754C100.66 16.735 100.811 16.7744 100.992 16.9668C101.091 17.0708 101.191 17.2134 101.265 17.3946C101.339 17.577 101.368 17.7583 101.368 17.92H97.3684ZM99.3828 20.526C100.04 20.758 100.81 20.9002 101.635 20.9886L102.062 17.0114C101.393 16.9398 100.963 16.842 100.714 16.754L99.3828 20.526ZM101.635 20.9886C102.348 21.065 103.133 21.1677 103.989 21.2974L104.588 17.3426C103.684 17.2056 102.842 17.095 102.062 17.0114L101.635 20.9886ZM104.055 21.3063C104.843 21.3991 105.621 21.5614 106.388 21.794L107.548 17.966C106.556 17.6653 105.547 17.4543 104.522 17.3337L104.055 21.3063ZM106.457 21.8134C107.173 22.003 107.806 22.2815 108.367 22.6424L110.53 19.2776C109.598 18.6785 108.577 18.237 107.48 17.9466L106.457 21.8134ZM108.367 22.6424C108.815 22.9307 109.192 23.3288 109.495 23.8817L113.002 21.9583C112.399 20.8579 111.575 19.9493 110.53 19.2776L108.367 22.6424ZM109.508 23.906C109.741 24.3157 109.928 24.9721 109.928 26H113.928C113.928 24.5212 113.663 23.1243 112.988 21.934L109.508 23.906ZM109.928 26C109.928 26.852 109.668 27.6749 109.066 28.5104L112.311 30.8496C113.362 29.3918 113.928 27.7614 113.928 26H109.928ZM109.079 28.4923C108.526 29.2422 107.609 29.9555 106.165 30.5513L107.691 34.2487C109.608 33.4579 111.198 32.3578 112.298 30.8677L109.079 28.4923ZM106.191 30.541C104.819 31.0852 102.983 31.4 100.608 31.4V35.4C103.3 35.4 105.677 35.0481 107.666 34.259L106.191 30.541ZM131.866 33H129.866V35H131.866V33ZM131.866 11.12V9.12H129.866V11.12H131.866ZM140.906 11.12H142.906V9.12H140.906V11.12ZM140.906 33V35H142.906V33H140.906ZM132.426 8.04L133.757 6.54741L132.426 8.04ZM132.426 1.48L133.757 2.97259L132.426 1.48ZM140.346 1.4L139.061 2.93304V2.93304L140.346 1.4ZM140.346 8.04L141.677 9.53259L141.688 9.5227L141.699 9.51265L140.346 8.04ZM133.866 33V11.12H129.866V33H133.866ZM131.866 13.12H140.906V9.12H131.866V13.12ZM138.906 11.12V33H142.906V11.12H138.906ZM140.906 31H131.866V35H140.906V31ZM136.386 7.36C135.096 7.36 134.292 7.02455 133.757 6.54741L131.094 9.53259C132.533 10.8154 134.369 11.36 136.386 11.36V7.36ZM133.757 6.54741C133.19 6.04175 132.946 5.4889 132.946 4.76H128.946C128.946 6.64443 129.688 8.27824 131.094 9.53259L133.757 6.54741ZM132.946 4.76C132.946 4.0311 133.19 3.47824 133.757 2.97259L131.094 -0.0125928C129.688 1.24175 128.946 2.87557 128.946 4.76H132.946ZM133.757 2.97259C134.292 2.49545 135.096 2.16 136.386 2.16V-1.84C134.369 -1.84 132.533 -1.29545 131.094 -0.0125928L133.757 2.97259ZM136.386 2.16C137.706 2.16 138.527 2.4853 139.061 2.93304L141.63 -0.133042C140.191 -1.33863 138.372 -1.84 136.386 -1.84V2.16ZM139.061 2.93304C139.586 3.37311 139.826 3.87469 139.826 4.6H143.826C143.826 2.71197 143.078 1.08022 141.63 -0.133043L139.061 2.93304ZM139.826 4.6C139.826 5.44899 139.551 6.05412 138.992 6.56735L141.699 9.51265C143.114 8.21255 143.826 6.52434 143.826 4.6H139.826ZM139.014 6.54741C138.479 7.02455 137.676 7.36 136.386 7.36V11.36C138.402 11.36 140.239 10.8154 141.677 9.53259L139.014 6.54741ZM167.152 40.48L167.618 38.535L167.152 40.48ZM162.273 38.44L160.479 37.5549L159.702 39.1299L161.163 40.1041L162.273 38.44ZM165.312 32.28L166.544 30.704L164.607 29.1907L163.519 31.3949L165.312 32.28ZM168.553 33.84L169.127 31.9243L169.115 31.9206L169.102 31.917L168.553 33.84ZM176.312 33.24L174.922 31.802L174.91 31.8138L174.898 31.8258L176.312 33.24ZM177.512 28.04L175.516 27.9226L175.512 27.9812V28.04H177.512ZM177.913 21.24L179.909 21.3574L179.912 21.3046L179.912 21.2518L177.913 21.24ZM177.952 14.44L179.952 14.4518V14.44H177.952ZM177.952 11.12V9.12H175.952V11.12H177.952ZM186.553 11.12H188.553V9.12H186.553V11.12ZM183.033 38.08L181.715 36.5748L183.033 38.08ZM166.312 30.52L165.349 32.2724L165.36 32.2786L165.371 32.2847L166.312 30.52ZM162.433 26.84L164.127 25.7774L162.433 26.84ZM162.433 15.64L164.127 16.7026L162.433 15.64ZM166.312 12L165.371 10.2353L166.312 12ZM176.113 11.84L175.056 13.5381L175.064 13.5433L175.073 13.5484L176.113 11.84ZM178.833 15.32L176.959 16.0188L176.963 16.0293L178.833 15.32ZM178.833 27.2L180.703 27.9093L180.706 27.8988L178.833 27.2ZM176.113 30.68L177.169 32.3781L177.179 32.3719L176.113 30.68ZM175.793 24.32L176.721 26.0917L175.793 24.32ZM177.113 23.08L178.827 24.109L177.113 23.08ZM177.113 19.4L175.398 20.429L175.409 20.4486L175.422 20.468L177.113 19.4ZM175.793 18.2L174.864 19.9717L174.898 19.9893L174.933 20.0057L175.793 18.2ZM171.952 18.2L172.812 20.0057L172.83 19.9975L172.847 19.9889L171.952 18.2ZM170.592 19.4L168.916 18.31L168.908 18.321L168.902 18.332L170.592 19.4ZM170.592 23.08L168.878 24.109L168.896 24.1398L168.916 24.17L170.592 23.08ZM171.952 24.32L171.024 26.0917L171.041 26.1004L171.058 26.1089L171.952 24.32ZM173.232 39.16C171.212 39.16 169.343 38.9481 167.618 38.535L166.687 42.425C168.748 42.9186 170.933 43.16 173.232 43.16V39.16ZM167.618 38.535C165.912 38.1263 164.512 37.5293 163.382 36.7759L161.163 40.1041C162.753 41.164 164.607 41.927 166.687 42.425L167.618 38.535ZM164.066 39.3251L167.106 33.1651L163.519 31.3949L160.479 37.5549L164.066 39.3251ZM164.081 33.856C165.182 34.7159 166.51 35.3364 168.003 35.763L169.102 31.917C167.982 31.597 167.15 31.1774 166.544 30.704L164.081 33.856ZM167.978 35.7557C169.464 36.2015 170.912 36.44 172.312 36.44V32.44C171.366 32.44 170.308 32.2785 169.127 31.9243L167.978 35.7557ZM172.312 36.44C174.382 36.44 176.371 36.0103 177.727 34.6542L174.898 31.8258C174.654 32.0697 173.976 32.44 172.312 32.44V36.44ZM177.703 34.678C179.005 33.4188 179.512 31.709 179.512 29.88H175.512C175.512 30.9844 175.22 31.5145 174.922 31.802L177.703 34.678ZM179.512 29.88V28.04H175.512V29.88H179.512ZM179.509 28.1574L179.909 21.3574L175.916 21.1226L175.516 27.9226L179.509 28.1574ZM179.912 21.2518L179.952 14.4518L175.953 14.4282L175.913 21.2282L179.912 21.2518ZM179.952 14.44V11.12H175.952V14.44H179.952ZM177.952 13.12H186.553V9.12H177.952V13.12ZM184.553 11.12V28.64H188.553V11.12H184.553ZM184.553 28.64C184.553 32.5208 183.488 35.0242 181.715 36.5748L184.35 39.5852C187.271 37.0291 188.553 33.2392 188.553 28.64H184.553ZM181.715 36.5748C179.842 38.2138 177.102 39.16 173.232 39.16V43.16C177.736 43.16 181.529 42.0529 184.35 39.5852L181.715 36.5748ZM171.473 29.8C169.956 29.8 168.56 29.4518 167.254 28.7553L165.371 32.2847C167.265 33.2949 169.309 33.8 171.473 33.8V29.8ZM167.276 28.7676C165.98 28.0545 164.936 27.0675 164.127 25.7774L160.738 27.9026C161.902 29.7591 163.445 31.2255 165.349 32.2724L167.276 28.7676ZM164.127 25.7774C163.371 24.5716 162.952 23.0866 162.952 21.24H158.952C158.952 23.7134 159.521 25.9618 160.738 27.9026L164.127 25.7774ZM162.952 21.24C162.952 19.3934 163.371 17.9084 164.127 16.7026L160.738 14.5774C159.521 16.5182 158.952 18.7666 158.952 21.24H162.952ZM164.127 16.7026C164.933 15.4175 165.969 14.4496 167.254 13.7647L165.371 10.2353C163.456 11.257 161.906 12.7158 160.738 14.5774L164.127 16.7026ZM167.254 13.7647C168.56 13.0682 169.956 12.72 171.473 12.72V8.72C169.309 8.72 167.265 9.22512 165.371 10.2353L167.254 13.7647ZM171.473 12.72C173.116 12.72 174.264 13.0451 175.056 13.5381L177.169 10.1419C175.562 9.1416 173.616 8.72 171.473 8.72V12.72ZM175.073 13.5484C175.853 14.0235 176.501 14.7918 176.959 16.0188L180.706 14.6212C179.991 12.7016 178.825 11.1498 177.152 10.1316L175.073 13.5484ZM176.963 16.0293C177.434 17.2718 177.713 18.9826 177.713 21.24H181.713C181.713 18.6974 181.405 16.4615 180.702 14.6107L176.963 16.0293ZM177.713 21.24C177.713 23.4954 177.434 25.2252 176.959 26.5012L180.706 27.8988C181.404 26.0281 181.713 23.7846 181.713 21.24H177.713ZM176.963 26.4907C176.507 27.691 175.855 28.4783 175.046 28.9881L177.179 32.3719C178.824 31.335 179.984 29.8023 180.702 27.9093L176.963 26.4907ZM175.056 28.9819C174.264 29.4749 173.116 29.8 171.473 29.8V33.8C173.616 33.8 175.562 33.3784 177.169 32.3781L175.056 28.9819ZM173.872 26.76C174.87 26.76 175.837 26.5547 176.721 26.0917L174.864 22.5483C174.628 22.672 174.315 22.76 173.872 22.76V26.76ZM176.721 26.0917C177.6 25.6307 178.315 24.9629 178.827 24.109L175.398 22.051C175.27 22.2638 175.105 22.4226 174.864 22.5483L176.721 26.0917ZM178.827 24.109C179.355 23.2301 179.592 22.2531 179.592 21.24H175.592C175.592 21.6136 175.51 21.8632 175.398 22.051L178.827 24.109ZM179.592 21.24C179.592 20.2188 179.363 19.2176 178.803 18.332L175.422 20.468C175.502 20.5957 175.592 20.8212 175.592 21.24H179.592ZM178.827 18.371C178.306 17.5013 177.569 16.8306 176.652 16.3943L174.933 20.0057C175.136 20.1027 175.279 20.232 175.398 20.429L178.827 18.371ZM176.721 16.4283C175.837 15.9653 174.87 15.76 173.872 15.76V19.76C174.315 19.76 174.628 19.848 174.864 19.9717L176.721 16.4283ZM173.872 15.76C172.887 15.76 171.938 15.971 171.058 16.4111L172.847 19.9889C173.14 19.8423 173.471 19.76 173.872 19.76V15.76ZM171.093 16.3943C170.191 16.8238 169.458 17.4756 168.916 18.31L172.269 20.49C172.42 20.2577 172.594 20.1095 172.812 20.0057L171.093 16.3943ZM168.902 18.332C168.342 19.2176 168.113 20.2188 168.113 21.24H172.113C172.113 20.8212 172.203 20.5957 172.283 20.468L168.902 18.332ZM168.113 21.24C168.113 22.2531 168.35 23.2301 168.878 24.109L172.307 22.051C172.195 21.8632 172.113 21.6136 172.113 21.24H168.113ZM168.916 24.17C169.448 24.9891 170.159 25.6381 171.024 26.0917L172.881 22.5483C172.626 22.4153 172.43 22.2375 172.269 21.99L168.916 24.17ZM171.058 26.1089C171.938 26.549 172.887 26.76 173.872 26.76V22.76C173.471 22.76 173.14 22.6777 172.847 22.5311L171.058 26.1089ZM227.51 11.76L226.602 13.5418L226.616 13.5489L226.63 13.5558L227.51 11.76ZM230.71 14.92L228.948 15.8663L228.955 15.8788L228.962 15.8913L230.71 14.92ZM231.91 33V35H233.91V33H231.91ZM222.87 33H220.87V35H222.87V33ZM222.15 19.2L220.602 20.4665L220.617 20.4842L220.631 20.5016L222.15 19.2ZM218.47 18.76L219.401 20.5298L219.418 20.5213L219.434 20.5124L218.47 18.76ZM217.23 20.12L215.441 19.2256L215.426 19.2559L215.412 19.2867L217.23 20.12ZM216.79 33V35H218.79V33H216.79ZM207.75 33H205.75V35H207.75V33ZM207.75 11.12V9.12H205.75V11.12H207.75ZM216.35 11.12H218.35V9.12H216.35V11.12ZM216.35 17.52L214.889 18.8858L218.35 22.5883V17.52H216.35ZM214.63 15.68L212.853 14.7627L212.206 16.0157L213.169 17.0458L214.63 15.68ZM218.07 11.96L217.088 10.2177L217.081 10.2216L217.074 10.2255L218.07 11.96ZM222.95 12.72C224.347 12.72 225.55 13.0059 226.602 13.5418L228.418 9.97819C226.75 9.12746 224.913 8.72 222.95 8.72V12.72ZM226.63 13.5558C227.584 14.0236 228.356 14.7639 228.948 15.8663L232.472 13.9737C231.517 12.1961 230.156 10.8297 228.39 9.96416L226.63 13.5558ZM228.962 15.8913C229.544 16.9403 229.91 18.4401 229.91 20.52H233.91C233.91 18.0133 233.476 15.7797 232.458 13.9487L228.962 15.8913ZM229.91 20.52V33H233.91V20.52H229.91ZM231.91 31H222.87V35H231.91V31ZM224.87 33V22.08H220.87V33H224.87ZM224.87 22.08C224.87 20.5987 224.631 19.0216 223.669 17.8984L220.631 20.5016C220.613 20.4795 220.68 20.5481 220.75 20.8251C220.818 21.0998 220.87 21.5073 220.87 22.08H224.87ZM223.698 17.9335C222.801 16.8367 221.555 16.32 220.19 16.32V20.32C220.479 20.32 220.539 20.3899 220.602 20.4665L223.698 17.9335ZM220.19 16.32C219.242 16.32 218.337 16.5505 217.506 17.0076L219.434 20.5124C219.67 20.3828 219.911 20.32 220.19 20.32V16.32ZM217.539 16.9902C216.578 17.4957 215.901 18.3057 215.441 19.2256L219.019 21.0144C219.199 20.6543 219.349 20.5576 219.401 20.5298L217.539 16.9902ZM215.412 19.2867C214.951 20.2926 214.79 21.4819 214.79 22.72H218.79C218.79 21.7714 218.923 21.2274 219.048 20.9533L215.412 19.2867ZM214.79 22.72V33H218.79V22.72H214.79ZM216.79 31H207.75V35H216.79V31ZM209.75 33V11.12H205.75V33H209.75ZM207.75 13.12H216.35V9.12H207.75V13.12ZM214.35 11.12V17.52H218.35V11.12H214.35ZM217.811 16.1542L216.091 14.3142L213.169 17.0458L214.889 18.8858L217.811 16.1542ZM216.407 16.5973C217.106 15.2433 217.999 14.3071 219.066 13.6945L217.074 10.2255C215.261 11.2662 213.861 12.81 212.853 14.7627L216.407 16.5973ZM219.052 13.7023C220.201 13.055 221.486 12.72 222.95 12.72V8.72C220.841 8.72 218.873 9.2117 217.088 10.2177L219.052 13.7023ZM286.436 11.76L285.499 13.5267L285.52 13.538L285.542 13.5489L286.436 11.76ZM289.556 14.92L287.78 15.8406L287.787 15.8535L287.794 15.8663L289.556 14.92ZM290.716 33V35H292.716V33H290.716ZM281.676 33H279.676V35H281.676V33ZM280.996 19.2L279.413 20.4229L279.427 20.4408L279.441 20.4584L280.996 19.2ZM277.796 18.72L276.736 17.024V17.024L277.796 18.72ZM276.756 20L274.935 19.1724L274.926 19.1922L274.918 19.2122L276.756 20ZM276.396 33V35H278.396V33H276.396ZM267.356 33H265.356V35H267.356V33ZM266.716 19.2L265.098 20.3763L265.112 20.3944L265.125 20.4121L266.716 19.2ZM263.476 18.72L262.416 17.024V17.024L263.476 18.72ZM262.436 20L260.615 19.1724L260.606 19.1922L260.598 19.2122L262.436 20ZM262.076 33V35H264.076V33H262.076ZM253.036 33H251.036V35H253.036V33ZM253.036 11.12V9.12H251.036V11.12H253.036ZM261.636 11.12H263.636V9.12H261.636V11.12ZM261.636 17.4L260.222 18.8142L263.636 22.2284V17.4H261.636ZM259.876 15.64L258.087 14.7456L257.442 16.0349L258.462 17.0542L259.876 15.64ZM263.196 11.96L264.195 13.6924L264.208 13.6852L264.22 13.6779L263.196 11.96ZM272.916 12.24L271.779 13.8855L271.796 13.8972L271.813 13.9087L272.916 12.24ZM275.916 16.96L275.601 18.9351L278.544 19.4041L277.863 16.5033L275.916 16.96ZM273.156 16.52L271.326 15.7127L270.279 18.0866L272.841 18.4951L273.156 16.52ZM276.636 12.28L277.745 13.9441L277.752 13.9397L276.636 12.28ZM281.996 12.72C283.362 12.72 284.513 13.0039 285.499 13.5267L287.373 9.9933C285.745 9.12945 283.937 8.72 281.996 8.72V12.72ZM285.542 13.5489C286.463 14.0096 287.21 14.741 287.78 15.8406L291.331 13.9994C290.408 12.219 289.075 10.8437 287.33 9.97114L285.542 13.5489ZM287.794 15.8663C288.361 16.9218 288.716 18.4313 288.716 20.52H292.716C292.716 18.0221 292.298 15.7982 291.318 13.9737L287.794 15.8663ZM288.716 20.52V33H292.716V20.52H288.716ZM290.716 31H281.676V35H290.716V31ZM283.676 33V22.08H279.676V33H283.676ZM283.676 22.08C283.676 20.6148 283.455 19.0591 282.55 17.9416L279.441 20.4584C279.423 20.4353 279.491 20.51 279.559 20.7996C279.627 21.0844 279.676 21.501 279.676 22.08H283.676ZM282.579 17.9771C281.76 16.9174 280.597 16.32 279.236 16.32V20.32C279.28 20.32 279.304 20.3244 279.313 20.3264C279.318 20.3275 279.32 20.3284 279.321 20.3286C279.321 20.3287 279.321 20.3288 279.321 20.3288C279.321 20.3288 279.321 20.3288 279.322 20.3289C279.322 20.3289 279.322 20.329 279.322 20.3293C279.323 20.3296 279.324 20.3301 279.325 20.3309C279.327 20.3325 279.332 20.3359 279.339 20.3418C279.353 20.3534 279.379 20.3778 279.413 20.4229L282.579 17.9771ZM279.236 16.32C278.351 16.32 277.5 16.5466 276.736 17.024L278.856 20.416C278.945 20.3601 279.054 20.32 279.236 20.32V16.32ZM276.736 17.024C275.894 17.5504 275.319 18.3276 274.935 19.1724L278.577 20.8276C278.726 20.4991 278.845 20.4229 278.856 20.416L276.736 17.024ZM274.918 19.2122C274.525 20.1281 274.396 21.2101 274.396 22.32H278.396C278.396 21.4566 278.507 20.9919 278.594 20.7878L274.918 19.2122ZM274.396 22.32V33H278.396V22.32H274.396ZM276.396 31H267.356V35H276.396V31ZM269.356 33V22.08H265.356V33H269.356ZM269.356 22.08C269.356 20.6299 269.152 19.0972 268.307 17.9879L265.125 20.4121C265.108 20.3895 265.176 20.4715 265.244 20.7739C265.309 21.0689 265.356 21.4948 265.356 22.08H269.356ZM268.333 18.0237C267.502 16.8807 266.28 16.32 264.916 16.32V20.32C265.046 20.32 265.081 20.3434 265.068 20.3368C265.063 20.3347 265.061 20.3324 265.062 20.3335C265.064 20.3351 265.077 20.3465 265.098 20.3763L268.333 18.0237ZM264.916 16.32C264.031 16.32 263.18 16.5466 262.416 17.024L264.536 20.416C264.625 20.3601 264.734 20.32 264.916 20.32V16.32ZM262.416 17.024C261.574 17.5504 260.999 18.3276 260.615 19.1724L264.257 20.8276C264.406 20.4991 264.525 20.4229 264.536 20.416L262.416 17.024ZM260.598 19.2122C260.205 20.1281 260.076 21.2101 260.076 22.32H264.076C264.076 21.4566 264.187 20.9919 264.274 20.7878L260.598 19.2122ZM260.076 22.32V33H264.076V22.32H260.076ZM262.076 31H253.036V35H262.076V31ZM255.036 33V11.12H251.036V33H255.036ZM253.036 13.12H261.636V9.12H253.036V13.12ZM259.636 11.12V17.4H263.636V11.12H259.636ZM263.05 15.9858L261.29 14.2258L258.462 17.0542L260.222 18.8142L263.05 15.9858ZM261.665 16.5344C262.344 15.1761 263.198 14.2675 264.195 13.6924L262.197 10.2276C260.42 11.2525 259.061 12.7972 258.087 14.7456L261.665 16.5344ZM264.22 13.6779C265.279 13.0465 266.468 12.72 267.836 12.72V8.72C265.79 8.72 263.886 9.22011 262.172 10.2421L264.22 13.6779ZM267.836 12.72C269.383 12.72 270.673 13.121 271.779 13.8855L274.053 10.5945C272.226 9.33231 270.129 8.72 267.836 8.72V12.72ZM271.813 13.9087C272.785 14.5504 273.549 15.6287 273.969 17.4167L277.863 16.5033C277.269 13.9713 276.034 11.903 274.018 10.5713L271.813 13.9087ZM276.231 14.9849L273.471 14.5449L272.841 18.4951L275.601 18.9351L276.231 14.9849ZM274.986 17.3273C275.646 15.8315 276.569 14.7283 277.745 13.9441L275.527 10.6159C273.663 11.8584 272.266 13.5818 271.326 15.7127L274.986 17.3273ZM277.752 13.9397C278.94 13.141 280.331 12.72 281.996 12.72V8.72C279.608 8.72 277.425 9.33904 275.52 10.6203L277.752 13.9397ZM317.308 31.92L316.414 33.7089L316.423 33.7136L317.308 31.92ZM312.708 27.88L311.016 28.947L311.024 28.9589L312.708 27.88ZM312.668 16.16L310.984 15.0811L310.978 15.0905L310.972 15.1L312.668 16.16ZM317.108 12.16L316.204 10.3762L316.193 10.3814L317.108 12.16ZM329.428 12L328.577 13.8097L328.587 13.8144L329.428 12ZM333.828 15.8L332.152 16.8909L332.158 16.9002L332.164 16.9094L333.828 15.8ZM335.468 23.12L337.463 23.2625L337.464 23.253L335.468 23.12ZM335.388 24.16V26.16H337.228L337.381 24.3261L335.388 24.16ZM318.548 24.16H316.548V26.16H318.548V24.16ZM318.548 19.8V17.8H316.548V19.8H318.548ZM330.588 19.8L331.234 21.6929L330.588 17.8V19.8ZM327.188 20.96H325.188V23.7556L327.834 22.8529L327.188 20.96ZM326.708 18.8L324.904 19.6629L324.927 19.711L324.952 19.7577L326.708 18.8ZM325.468 17.4L324.378 19.0769L324.408 19.0965L324.439 19.115L325.468 17.4ZM321.588 17.4L322.617 19.115L322.629 19.1078L322.641 19.1005L321.588 17.4ZM320.348 18.8L322.137 19.6944L322.145 19.6787L322.152 19.6629L320.348 18.8ZM320.468 24.72L322.213 23.7428L320.468 24.72ZM322.068 26.24L321.174 28.0289L321.202 28.0428L321.23 28.0559L322.068 26.24ZM327.068 26.32L326.325 24.463L326.312 24.4684L326.299 24.4738L327.068 26.32ZM329.148 25.12L330.568 23.7118L329.349 22.4822L327.958 23.5129L329.148 25.12ZM333.868 29.88L335.332 31.2422L336.641 29.8358L335.288 28.4718L333.868 29.88ZM329.908 32.52L330.617 34.39L330.626 34.3867L330.635 34.3834L329.908 32.52ZM324.308 31.4C321.889 31.4 319.869 30.9532 318.193 30.1264L316.423 33.7136C318.747 34.8601 321.394 35.4 324.308 35.4V31.4ZM318.203 30.1311C316.522 29.2909 315.274 28.1777 314.392 26.8011L311.024 28.9589C312.329 30.9956 314.147 32.5757 316.414 33.7089L318.203 30.1311ZM314.4 26.813C313.519 25.4167 313.068 23.8437 313.068 22.04H309.068C309.068 24.5563 309.711 26.8767 311.017 28.947L314.4 26.813ZM313.068 22.04C313.068 20.1628 313.516 18.5775 314.364 17.22L310.972 15.1C309.687 17.1558 309.068 19.4905 309.068 22.04H313.068ZM314.352 17.2389C315.248 15.8401 316.458 14.7433 318.023 13.9386L316.193 10.3814C314.025 11.4967 312.275 13.0666 310.984 15.0811L314.352 17.2389ZM318.013 13.9438C319.597 13.1404 321.402 12.72 323.468 12.72V8.72C320.841 8.72 318.406 9.25959 316.204 10.3762L318.013 13.9438ZM323.468 12.72C325.357 12.72 327.05 13.0912 328.577 13.8096L330.28 10.1904C328.18 9.20211 325.899 8.72 323.468 8.72V12.72ZM328.587 13.8144C330.09 14.5117 331.266 15.5296 332.152 16.8909L335.504 14.7091C334.204 12.7104 332.446 11.195 330.27 10.1856L328.587 13.8144ZM332.164 16.9094C333.02 18.1927 333.508 19.864 333.508 22.04H337.508C337.508 19.2559 336.877 16.7673 335.492 14.6906L332.164 16.9094ZM333.508 22.04C333.508 22.3062 333.497 22.6207 333.473 22.987L337.464 23.253C337.493 22.8193 337.508 22.4138 337.508 22.04H333.508ZM333.473 22.9775C333.447 23.3442 333.421 23.6829 333.395 23.9939L337.381 24.3261C337.409 23.9971 337.436 23.6424 337.463 23.2625L333.473 22.9775ZM335.388 22.16H318.548V26.16H335.388V22.16ZM320.548 24.16V19.8H316.548V24.16H320.548ZM318.548 21.8H330.588V17.8H318.548V21.8ZM329.942 17.9071L326.542 19.0671L327.834 22.8529L331.234 21.6929L329.942 17.9071ZM329.188 20.96C329.188 19.8625 328.983 18.7931 328.464 17.8423L324.952 19.7577C325.074 19.9803 325.188 20.3508 325.188 20.96H329.188ZM328.512 17.9371C328.066 17.0042 327.398 16.2256 326.497 15.685L324.439 19.115C324.605 19.2144 324.763 19.3691 324.904 19.6629L328.512 17.9371ZM326.558 15.7231C325.647 15.1311 324.613 14.88 323.548 14.88V18.88C323.976 18.88 324.222 18.9756 324.378 19.0769L326.558 15.7231ZM323.548 14.88C322.48 14.88 321.452 15.1318 320.535 15.6995L322.641 19.1005C322.844 18.9748 323.122 18.88 323.548 18.88V14.88ZM320.559 15.685C319.658 16.2256 318.99 17.0042 318.544 17.9371L322.152 19.6629C322.293 19.3691 322.451 19.2144 322.617 19.115L320.559 15.685ZM318.559 17.9056C318.092 18.8406 317.908 19.8863 317.908 20.96H321.908C321.908 20.3271 322.018 19.9327 322.137 19.6944L318.559 17.9056ZM317.908 20.96V22.32H321.908V20.96H317.908ZM317.908 22.32C317.908 23.5203 318.149 24.6726 318.723 25.6972L322.213 23.7428C322.04 23.4341 321.908 22.9864 321.908 22.32H317.908ZM318.723 25.6972C319.295 26.7189 320.127 27.5057 321.174 28.0289L322.963 24.4511C322.622 24.2809 322.388 24.0544 322.213 23.7428L318.723 25.6972ZM321.23 28.0559C322.251 28.5272 323.393 28.72 324.588 28.72V24.72C323.81 24.72 323.272 24.5928 322.906 24.4241L321.23 28.0559ZM324.588 28.72C325.754 28.72 326.868 28.5699 327.837 28.1662L326.299 24.4738C325.988 24.6034 325.449 24.72 324.588 24.72V28.72ZM327.811 28.177C328.671 27.8331 329.513 27.3385 330.339 26.7271L327.958 23.5129C327.343 23.9681 326.799 24.2736 326.325 24.463L327.811 28.177ZM327.728 26.5282L332.448 31.2882L335.288 28.4718L330.568 23.7118L327.728 26.5282ZM332.404 28.5178C331.558 29.427 330.497 30.1439 329.182 30.6566L330.635 34.3834C332.466 33.6694 334.045 32.6263 335.332 31.2422L332.404 28.5178ZM329.199 30.65C327.939 31.128 326.326 31.4 324.308 31.4V35.4C326.664 35.4 328.784 35.0853 330.617 34.39L329.199 30.65ZM375.321 11.76L374.413 13.5418L374.427 13.5489L374.441 13.5558L375.321 11.76ZM378.521 14.92L376.759 15.8663L376.766 15.8788L376.773 15.8913L378.521 14.92ZM379.721 33V35H381.721V33H379.721ZM370.681 33H368.681V35H370.681V33ZM369.961 19.2L368.413 20.4665L368.428 20.4842L368.442 20.5016L369.961 19.2ZM366.281 18.76L367.212 20.5298L367.229 20.5213L367.245 20.5124L366.281 18.76ZM365.041 20.12L363.252 19.2256L363.237 19.2559L363.223 19.2867L365.041 20.12ZM364.601 33V35H366.601V33H364.601ZM355.561 33H353.561V35H355.561V33ZM355.561 11.12V9.12H353.561V11.12H355.561ZM364.161 11.12H366.161V9.12H364.161V11.12ZM364.161 17.52L362.7 18.8858L366.161 22.5883V17.52H364.161ZM362.441 15.68L360.664 14.7627L360.017 16.0157L360.98 17.0458L362.441 15.68ZM365.881 11.96L364.899 10.2177L364.892 10.2216L364.885 10.2255L365.881 11.96ZM370.761 12.72C372.157 12.72 373.361 13.0059 374.413 13.5418L376.229 9.97819C374.561 9.12746 372.724 8.72 370.761 8.72V12.72ZM374.441 13.5558C375.395 14.0236 376.167 14.7639 376.759 15.8663L380.283 13.9737C379.328 12.1961 377.967 10.8297 376.201 9.96416L374.441 13.5558ZM376.773 15.8913C377.355 16.9403 377.721 18.4401 377.721 20.52H381.721C381.721 18.0133 381.286 15.7797 380.269 13.9487L376.773 15.8913ZM377.721 20.52V33H381.721V20.52H377.721ZM379.721 31H370.681V35H379.721V31ZM372.681 33V22.08H368.681V33H372.681ZM372.681 22.08C372.681 20.5987 372.442 19.0216 371.479 17.8984L368.442 20.5016C368.423 20.4795 368.491 20.5481 368.561 20.8251C368.629 21.0998 368.681 21.5073 368.681 22.08H372.681ZM371.509 17.9335C370.611 16.8367 369.366 16.32 368.001 16.32V20.32C368.29 20.32 368.35 20.3899 368.413 20.4665L371.509 17.9335ZM368.001 16.32C367.053 16.32 366.148 16.5505 365.317 17.0076L367.245 20.5124C367.48 20.3828 367.722 20.32 368.001 20.32V16.32ZM365.349 16.9902C364.389 17.4957 363.712 18.3057 363.252 19.2256L366.83 21.0144C367.01 20.6543 367.16 20.5576 367.212 20.5298L365.349 16.9902ZM363.223 19.2867C362.762 20.2926 362.601 21.4819 362.601 22.72H366.601C366.601 21.7714 366.733 21.2274 366.859 20.9533L363.223 19.2867ZM362.601 22.72V33H366.601V22.72H362.601ZM364.601 31H355.561V35H364.601V31ZM357.561 33V11.12H353.561V33H357.561ZM355.561 13.12H364.161V9.12H355.561V13.12ZM362.161 11.12V17.52H366.161V11.12H362.161ZM365.622 16.1542L363.902 14.3142L360.98 17.0458L362.7 18.8858L365.622 16.1542ZM364.218 16.5973C364.917 15.2433 365.81 14.3071 366.877 13.6945L364.885 10.2255C363.072 11.2662 361.672 12.81 360.664 14.7627L364.218 16.5973ZM366.863 13.7023C368.011 13.055 369.297 12.72 370.761 12.72V8.72C368.652 8.72 366.684 9.2117 364.899 10.2177L366.863 13.7023ZM404.367 31.24L403.052 32.7466L403.058 32.7526L403.065 32.7585L404.367 31.24ZM401.847 6.2V4.2H399.847V6.2H401.847ZM410.887 6.2H412.887V4.2H410.887V6.2ZM411.407 26L409.941 27.3609L409.966 27.388L409.993 27.4142L411.407 26ZM414.807 25.96L416.698 25.3095L415.846 22.8311L413.68 24.3075L414.807 25.96ZM416.967 32.24L417.966 33.9724L419.394 33.1485L418.858 31.5895L416.967 32.24ZM414.447 33.12L414.075 31.1548L414.065 31.1568L414.447 33.12ZM398.847 18.92H396.847V20.92H398.847V18.92ZM398.847 12.32V10.32H396.847V12.32H398.847ZM415.367 12.32H417.367V10.32H415.367V12.32ZM415.367 18.92V20.92H417.367V18.92H415.367ZM411.407 31.4C408.698 31.4 406.873 30.7541 405.668 29.7215L403.065 32.7585C405.221 34.6059 408.089 35.4 411.407 35.4V31.4ZM405.682 29.7334C404.576 28.7672 403.847 27.169 403.847 24.52H399.847C399.847 27.8977 400.798 30.7794 403.052 32.7466L405.682 29.7334ZM403.847 24.52V6.2H399.847V24.52H403.847ZM401.847 8.2H410.887V4.2H401.847V8.2ZM408.887 6.2V24.44H412.887V6.2H408.887ZM408.887 24.44C408.887 25.4513 409.156 26.5149 409.941 27.3609L412.872 24.6391C412.888 24.6555 412.9 24.6723 412.908 24.6864C412.916 24.7001 412.917 24.7053 412.914 24.6975C412.908 24.6801 412.887 24.6032 412.887 24.44H408.887ZM409.993 27.4142C410.745 28.1669 411.709 28.56 412.767 28.56V24.56C412.751 24.56 412.747 24.5586 412.754 24.5599C412.761 24.5612 412.773 24.5643 412.788 24.5706C412.804 24.577 412.816 24.5839 412.824 24.5892C412.831 24.5942 412.83 24.5946 412.821 24.5858L409.993 27.4142ZM412.767 28.56C413.905 28.56 414.985 28.2591 415.934 27.6125L413.68 24.3075C413.455 24.4609 413.176 24.56 412.767 24.56V28.56ZM412.916 26.6105L415.076 32.8905L418.858 31.5895L416.698 25.3095L412.916 26.6105ZM415.967 30.5076C415.511 30.7709 414.895 30.9998 414.075 31.1549L414.819 35.0851C415.972 34.8669 417.036 34.5091 417.966 33.9724L415.967 30.5076ZM414.065 31.1568C413.242 31.3169 412.357 31.4 411.407 31.4V35.4C412.59 35.4 413.732 35.2964 414.829 35.0832L414.065 31.1568ZM400.847 18.92V12.32H396.847V18.92H400.847ZM398.847 14.32H415.367V10.32H398.847V14.32ZM413.367 12.32V18.92H417.367V12.32H413.367ZM415.367 16.92H398.847V20.92H415.367V16.92ZM468.638 33H466.638V35H468.638V33ZM468.638 8.28L470.015 6.83036L466.638 3.6197V8.28H468.638ZM472.678 12.12V14.12H477.685L474.055 10.6704L472.678 12.12ZM463.838 12.12H461.838V14.12H463.838V12.12ZM463.838 5V3H461.838V5H463.838ZM478.078 5H480.078V3H478.078V5ZM478.078 33V35H480.078V33H478.078ZM470.638 33V8.28H466.638V33H470.638ZM467.26 9.72964L471.3 13.5696L474.055 10.6704L470.015 6.83036L467.26 9.72964ZM472.678 10.12H463.838V14.12H472.678V10.12ZM465.838 12.12V5H461.838V12.12H465.838ZM463.838 7H478.078V3H463.838V7ZM476.078 5V33H480.078V5H476.078ZM478.078 31H468.638V35H478.078V31Z" fill="#3D8DA6"/>
</svg>
