<svg width="15" height="20" viewBox="0 0 15 20" fill="none" xmlns="http://www.w3.org/2000/svg">
<path d="M9.11625 0H2.5C1.83696 0 1.20107 0.263392 0.732233 0.732233C0.263392 1.20107 0 1.83696 0 2.5V17.5C0 18.163 0.263392 18.7989 0.732233 19.2678C1.20107 19.7366 1.83696 20 2.5 20H12.5C13.163 20 13.7989 19.7366 14.2678 19.2678C14.7366 18.7989 15 18.163 15 17.5V5.88375C14.9999 5.55226 14.8682 5.23437 14.6337 5L10 0.36625C9.76563 0.131813 9.44774 7.07968e-05 9.11625 0V0ZM9.375 4.375V1.875L13.125 5.625H10.625C10.2935 5.625 9.97554 5.4933 9.74112 5.25888C9.5067 5.02446 9.375 4.70652 9.375 4.375ZM5.8075 9.5575C5.86561 9.49939 5.9346 9.45329 6.01052 9.42185C6.08644 9.3904 6.16782 9.37421 6.25 9.37421C6.33218 9.37421 6.41356 9.3904 6.48948 9.42185C6.5654 9.45329 6.63439 9.49939 6.6925 9.5575C6.75061 9.61561 6.79671 9.6846 6.82815 9.76052C6.8596 9.83644 6.87579 9.91782 6.87579 10C6.87579 10.0822 6.8596 10.1636 6.82815 10.2395C6.79671 10.3154 6.75061 10.3844 6.6925 10.4425L4.63375 12.5L6.6925 14.5575C6.80986 14.6749 6.87579 14.834 6.87579 15C6.87579 15.166 6.80986 15.3251 6.6925 15.4425C6.57514 15.5599 6.41597 15.6258 6.25 15.6258C6.08403 15.6258 5.92486 15.5599 5.8075 15.4425L3.3075 12.9425C3.2493 12.8844 3.20312 12.8155 3.17161 12.7395C3.1401 12.6636 3.12388 12.5822 3.12388 12.5C3.12388 12.4178 3.1401 12.3364 3.17161 12.2605C3.20312 12.1845 3.2493 12.1156 3.3075 12.0575L5.8075 9.5575ZM9.1925 9.5575L11.6925 12.0575C11.7507 12.1156 11.7969 12.1845 11.8284 12.2605C11.8599 12.3364 11.8761 12.4178 11.8761 12.5C11.8761 12.5822 11.8599 12.6636 11.8284 12.7395C11.7969 12.8155 11.7507 12.8844 11.6925 12.9425L9.1925 15.4425C9.07514 15.5599 8.91597 15.6258 8.75 15.6258C8.58403 15.6258 8.42486 15.5599 8.3075 15.4425C8.19014 15.3251 8.12421 15.166 8.12421 15C8.12421 14.834 8.19014 14.6749 8.3075 14.5575L10.3663 12.5L8.3075 10.4425C8.24939 10.3844 8.20329 10.3154 8.17185 10.2395C8.1404 10.1636 8.12421 10.0822 8.12421 10C8.12421 9.91782 8.1404 9.83644 8.17185 9.76052C8.20329 9.6846 8.24939 9.61561 8.3075 9.5575C8.36561 9.49939 8.4346 9.45329 8.51052 9.42185C8.58644 9.3904 8.66782 9.37421 8.75 9.37421C8.83218 9.37421 8.91356 9.3904 8.98948 9.42185C9.0654 9.45329 9.13439 9.49939 9.1925 9.5575Z" fill="#308099"/>
</svg>
